# xmcd
#
# Track frame offsets:
#	150
#	17774
#	34606
#	66598
#	86712
#	126338
#	142105
#	171900
#	194711
#	225250
#	238901
#	258914
#	270379
#	300343
#
# Disc length: 4797 seconds
#
# Revision: 0
# Processed by: cddbd v1.5.2PL0 Copyright (c) Steve Scherf et al.
# Submitted via: EZCDAudioConverter 1.3.4.1
#
DISCID=c512bb0e
DTITLE=Various Artist - Legends Of Benin
DYEAR=1900
DGENRE=
TTITLE0=Gnonnas Pedro Et Ses Dadjes - Dadje Von O Von Non
TTITLE1=El Rego Et Ses Commandos - Feeling You Got
TTITLE2=Antoine Dougbé - Honton Soukpo Gnon
TTITLE3=El Rego Et Ses Commandos - E Nan Mian Nuku
TTITLE4=Honoré Avolonto Et Orchestre Poly-Rythmo - Tin Lin Non
TTITLE5=Gnonnas Pedro Et Ses Panchos - Okpo Videa Bassouo
TTITLE6=Antoine Dougbé Et Orchestre Poly-Rythmo - Ya Mi Ton Gbo
TTITLE7=Antoine Dougbé - Nou Akuenon Hwlin Me Sin Koussio
TTITLE8=Honoré Avolonto - Na Mi Do Gbé Hué Nu
TTITLE9=El Rego Et Ses Commandos - Vimado Wingnan
TTITLE10=Honoré Avolonto Et Orchestre Black Santiago - Dou Dagbé Wé
TTITLE11=El Rego Et Ses Commandos - Djobimé
TTITLE12=Antoine Dougbé - Kovito Gbe De Towe
TTITLE13=Gnonnas Pedro Et Ses Dadjes - La Musica En Verité
EXTD=
EXTT0=
EXTT1=
EXTT2=
EXTT3=
EXTT4=
EXTT5=
EXTT6=
EXTT7=
EXTT8=
EXTT9=
EXTT10=
EXTT11=
EXTT12=
EXTT13=
PLAYORDER=
